<svg width="30" height="31" viewBox="0 0 30 31" fill="none" xmlns="http://www.w3.org/2000/svg">
<path d="M12.8571 17.6429H2.14286C1.53572 17.6429 1.02715 17.4371 0.61715 17.0257C0.20715 16.6143 0.00143596 16.1057 7.38915e-06 15.5C-0.00142118 14.8943 0.204293 14.3857 0.61715 13.9743C1.03001 13.5629 1.53858 13.3571 2.14286 13.3571H12.8571V2.64286C12.8571 2.03572 13.0629 1.52715 13.4743 1.11715C13.8857 0.70715 14.3943 0.501436 15 0.500007C15.6057 0.498579 16.115 0.704293 16.5279 1.11715C16.9407 1.53001 17.1457 2.03858 17.1429 2.64286V13.3571H27.8571C28.4643 13.3571 28.9736 13.5629 29.385 13.9743C29.7964 14.3857 30.0014 14.8943 30 15.5C29.9986 16.1057 29.7929 16.615 29.3829 17.0279C28.9729 17.4407 28.4643 17.6457 27.8571 17.6429H17.1429V28.3571C17.1429 28.9643 16.9371 29.4736 16.5257 29.885C16.1143 30.2964 15.6057 30.5014 15 30.5C14.3943 30.4986 13.8857 30.2929 13.4743 29.8829C13.0629 29.4729 12.8571 28.9643 12.8571 28.3571V17.6429Z" fill="black"/>
</svg>
