<svg width="26" height="26" viewBox="0 0 26 26" fill="none" xmlns="http://www.w3.org/2000/svg">
<path d="M0 26V19.8611L19.0667 0.830556C19.3555 0.565741 19.6748 0.361111 20.0243 0.216667C20.3739 0.0722224 20.7408 0 21.125 0C21.5092 0 21.8824 0.0722224 22.2444 0.216667C22.6065 0.361111 22.9195 0.577778 23.1833 0.866666L25.1694 2.88889C25.4583 3.1537 25.6692 3.46667 25.8021 3.82778C25.935 4.18889 26.001 4.55 26 4.91111C26 5.2963 25.934 5.66367 25.8021 6.01322C25.6702 6.36278 25.4593 6.68152 25.1694 6.96944L6.13889 26H0ZM21.0889 6.93333L23.1111 4.91111L21.0889 2.88889L19.0667 4.91111L21.0889 6.93333Z" fill="black"/>
</svg>
