<svg width="40" height="31" viewBox="0 0 40 31" fill="none" xmlns="http://www.w3.org/2000/svg">
<path fill-rule="evenodd" clip-rule="evenodd" d="M0 2.325C0 1.70837 0.197544 1.117 0.549175 0.680976C0.900805 0.244954 1.37772 0 1.875 0H38.125C38.6223 0 39.0992 0.244954 39.4508 0.680976C39.8025 1.117 40 1.70837 40 2.325C40 2.94163 39.8025 3.533 39.4508 3.96902C39.0992 4.40505 38.6223 4.65 38.125 4.65H1.875C1.37772 4.65 0.900805 4.40505 0.549175 3.96902C0.197544 3.533 0 2.94163 0 2.325ZM0 15.5C0 14.8834 0.197544 14.292 0.549175 13.856C0.900805 13.42 1.37772 13.175 1.875 13.175H38.125C38.6223 13.175 39.0992 13.42 39.4508 13.856C39.8025 14.292 40 14.8834 40 15.5C40 16.1166 39.8025 16.708 39.4508 17.144C39.0992 17.58 38.6223 17.825 38.125 17.825H1.875C1.37772 17.825 0.900805 17.58 0.549175 17.144C0.197544 16.708 0 16.1166 0 15.5ZM1.875 26.35C1.37772 26.35 0.900805 26.595 0.549175 27.031C0.197544 27.467 0 28.0584 0 28.675C0 29.2916 0.197544 29.883 0.549175 30.319C0.900805 30.755 1.37772 31 1.875 31H38.125C38.6223 31 39.0992 30.755 39.4508 30.319C39.8025 29.883 40 29.2916 40 28.675C40 28.0584 39.8025 27.467 39.4508 27.031C39.0992 26.595 38.6223 26.35 38.125 26.35H1.875Z" fill="black"/>
</svg>
