<svg width="28" height="28" viewBox="0 0 28 28" fill="none" xmlns="http://www.w3.org/2000/svg">
<path d="M2.51378 28C1.79719 28 1.19933 27.7305 0.720222 27.1915C0.241111 26.6525 0.00103704 25.9793 0 25.172V2.828C0 2.02183 0.240074 1.34925 0.720222 0.81025C1.20037 0.27125 1.7977 0.00116667 2.51222 0H25.4878C26.2033 0 26.8007 0.270083 27.2798 0.81025C27.7589 1.35042 27.999 2.023 28 2.828V25.1737C28 25.9787 27.7599 26.6513 27.2798 27.1915C26.7996 27.7317 26.2023 28.0012 25.4878 28H2.51378ZM9.33333 21.875C9.55422 21.875 9.73881 21.791 9.88711 21.623C10.0354 21.455 10.1101 21.2467 10.1111 20.9982C10.1121 20.7497 10.0375 20.5421 9.88711 20.3752C9.73674 20.2084 9.55215 20.125 9.33333 20.125H4.66667C4.44578 20.125 4.26119 20.209 4.11289 20.377C3.96459 20.545 3.88993 20.7532 3.88889 21.0017C3.88785 21.2502 3.96252 21.4579 4.11289 21.6247C4.26326 21.7916 4.44785 21.875 4.66667 21.875H9.33333ZM17.9667 15.5522L16.3007 13.6762C16.1493 13.5059 15.9657 13.4172 15.75 13.4102C15.5343 13.4032 15.3507 13.4954 15.1993 13.6867C15.0541 13.8571 14.9852 14.0636 14.9924 14.3062C14.9997 14.5489 15.079 14.7554 15.2304 14.9257L17.0878 17.0152C17.3387 17.2976 17.6317 17.4387 17.9667 17.4387C18.3016 17.4387 18.5951 17.2976 18.8471 17.0152L24.01 11.2052C24.1614 11.0361 24.2423 10.8354 24.2527 10.6032C24.262 10.3722 24.1811 10.1605 24.01 9.968C23.8379 9.7755 23.6527 9.67925 23.4547 9.67925C23.2566 9.67925 23.0715 9.7755 22.8993 9.968L17.9667 15.5522ZM9.33333 14.875C9.55422 14.875 9.73881 14.791 9.88711 14.623C10.0354 14.455 10.1101 14.2467 10.1111 13.9982C10.1121 13.7497 10.0375 13.5421 9.88711 13.3752C9.73674 13.2084 9.55215 13.125 9.33333 13.125H4.66667C4.44578 13.125 4.26119 13.209 4.11289 13.377C3.96459 13.545 3.88993 13.7532 3.88889 14.0017C3.88785 14.2502 3.96252 14.4579 4.11289 14.6247C4.26326 14.7916 4.44785 14.875 4.66667 14.875H9.33333ZM9.33333 7.875C9.55422 7.875 9.73881 7.791 9.88711 7.623C10.0354 7.455 10.1101 7.24675 10.1111 6.99825C10.1121 6.74975 10.0375 6.54208 9.88711 6.37525C9.73674 6.20842 9.55215 6.125 9.33333 6.125H4.66667C4.44578 6.125 4.26119 6.209 4.11289 6.377C3.96459 6.545 3.88993 6.75325 3.88889 7.00175C3.88785 7.25025 3.96252 7.45792 4.11289 7.62475C4.26326 7.79158 4.44785 7.875 4.66667 7.875H9.33333Z" fill="white"/>
</svg>
