<svg width="26" height="32" viewBox="0 0 26 32" fill="none" xmlns="http://www.w3.org/2000/svg">
<path d="M0 16C0 16.4243 0.171205 16.8313 0.475952 17.1314C0.780698 17.4314 1.19402 17.6 1.625 17.6H13.9588L10.2212 21.264C10.0689 21.4127 9.94805 21.5897 9.86555 21.7847C9.78305 21.9797 9.74058 22.1888 9.74058 22.4C9.74058 22.6112 9.78305 22.8203 9.86555 23.0153C9.94805 23.2103 10.0689 23.3873 10.2212 23.536C10.3723 23.686 10.552 23.805 10.7501 23.8862C10.9481 23.9675 11.1605 24.0093 11.375 24.0093C11.5895 24.0093 11.8019 23.9675 11.9999 23.8862C12.198 23.805 12.3777 23.686 12.5288 23.536L19.0288 17.136C19.1767 16.9838 19.2927 16.8044 19.37 16.608C19.5325 16.2185 19.5325 15.7815 19.37 15.392C19.2927 15.1956 19.1767 15.0162 19.0288 14.864L12.5288 8.464C12.3772 8.31482 12.1974 8.19648 11.9994 8.11574C11.8014 8.03501 11.5893 7.99345 11.375 7.99345C11.1607 7.99345 10.9486 8.03501 10.7506 8.11574C10.5526 8.19648 10.3728 8.31482 10.2212 8.464C10.0697 8.61318 9.94955 8.79029 9.86755 8.9852C9.78555 9.18012 9.74335 9.38903 9.74335 9.6C9.74335 9.81097 9.78555 10.0199 9.86755 10.2148C9.94955 10.4097 10.0697 10.5868 10.2212 10.736L13.9588 14.4H1.625C1.19402 14.4 0.780698 14.5686 0.475952 14.8686C0.171205 15.1687 0 15.5757 0 16ZM21.125 0H4.875C3.58207 0 2.34209 0.505713 1.42785 1.40589C0.513615 2.30606 0 3.52696 0 4.8V9.6C0 10.0243 0.171205 10.4313 0.475952 10.7314C0.780698 11.0314 1.19402 11.2 1.625 11.2C2.05598 11.2 2.4693 11.0314 2.77405 10.7314C3.07879 10.4313 3.25 10.0243 3.25 9.6V4.8C3.25 4.37565 3.42121 3.96869 3.72595 3.66863C4.0307 3.36857 4.44402 3.2 4.875 3.2H21.125C21.556 3.2 21.9693 3.36857 22.274 3.66863C22.5788 3.96869 22.75 4.37565 22.75 4.8V27.2C22.75 27.6243 22.5788 28.0313 22.274 28.3314C21.9693 28.6314 21.556 28.8 21.125 28.8H4.875C4.44402 28.8 4.0307 28.6314 3.72595 28.3314C3.42121 28.0313 3.25 27.6243 3.25 27.2V22.4C3.25 21.9757 3.07879 21.5687 2.77405 21.2686C2.4693 20.9686 2.05598 20.8 1.625 20.8C1.19402 20.8 0.780698 20.9686 0.475952 21.2686C0.171205 21.5687 0 21.9757 0 22.4V27.2C0 28.473 0.513615 29.6939 1.42785 30.5941C2.34209 31.4943 3.58207 32 4.875 32H21.125C22.4179 32 23.6579 31.4943 24.5721 30.5941C25.4864 29.6939 26 28.473 26 27.2V4.8C26 3.52696 25.4864 2.30606 24.5721 1.40589C23.6579 0.505713 22.4179 0 21.125 0Z" fill="white"/>
</svg>
