<svg width="22" height="28" viewBox="0 0 22 28" fill="none" xmlns="http://www.w3.org/2000/svg">
<path d="M11 14C9.4875 14 8.25 12.74 8.25 11.2C8.25 9.66 9.4875 8.4 11 8.4C12.5125 8.4 13.75 9.66 13.75 11.2C13.75 12.74 12.5125 14 11 14ZM19.25 11.48C19.25 6.398 15.6062 2.8 11 2.8C6.39375 2.8 2.75 6.398 2.75 11.48C2.75 14.756 5.43125 19.096 11 24.276C16.5688 19.096 19.25 14.756 19.25 11.48ZM11 0C16.775 0 22 4.508 22 11.48C22 16.128 18.3287 21.63 11 28C3.67125 21.63 0 16.128 0 11.48C0 4.508 5.225 0 11 0Z" fill="white"/>
</svg>
