<svg width="24" height="28" viewBox="0 0 24 28" fill="none" xmlns="http://www.w3.org/2000/svg">
<path d="M19.0408 4.38667C17.9948 3.1726 17.4182 1.61373 17.4184 0H12.6888V19.2889C12.6531 20.333 12.2197 21.3221 11.4801 22.0477C10.7405 22.7732 9.75245 23.1784 8.72449 23.1778C6.55102 23.1778 4.7449 21.3733 4.7449 19.1333C4.7449 16.4578 7.28571 14.4511 9.90306 15.2756V10.36C4.62245 9.64444 0 13.8133 0 19.1333C0 24.3133 4.22449 28 8.70918 28C13.5153 28 17.4184 24.0333 17.4184 19.1333V9.34889C19.3362 10.7487 21.6388 11.4997 24 11.4956V6.68889C24 6.68889 21.1224 6.82889 19.0408 4.38667Z" fill="white"/>
</svg>
