<svg width="24" height="26" viewBox="0 0 24 26" fill="none" xmlns="http://www.w3.org/2000/svg">
<path d="M22.668 5.2C23.0079 5.20037 23.3348 5.32724 23.5819 5.5547C23.8291 5.78216 23.9778 6.09304 23.9977 6.42381C24.0176 6.75459 23.9072 7.08029 23.6891 7.33438C23.4709 7.58847 23.1615 7.75177 22.824 7.7909L22.668 7.8H22.56L21.3345 22.1C21.3345 23.0948 20.9447 24.052 20.2446 24.7757C19.5446 25.4995 18.5873 25.9351 17.5687 25.9935L17.334 26H6.66601C4.53508 26 2.79353 24.3763 2.67619 22.425L2.66952 22.2079L1.4387 7.8H1.33202C0.992139 7.79963 0.665228 7.67276 0.418083 7.4453C0.170938 7.21784 0.0222123 6.90696 0.00229366 6.57619C-0.0176249 6.24541 0.0927671 5.91971 0.310914 5.66562C0.529062 5.41153 0.838498 5.24823 1.176 5.2091L1.33202 5.2H22.668ZM14.667 0C15.3743 0 16.0527 0.273928 16.5528 0.761522C17.053 1.24912 17.334 1.91044 17.334 2.6C17.3336 2.93134 17.2035 3.25004 16.9701 3.49098C16.7368 3.73192 16.4179 3.87691 16.0786 3.89632C15.7393 3.91574 15.4052 3.80812 15.1446 3.59546C14.884 3.38279 14.7165 3.08112 14.6763 2.7521L14.667 2.6H9.33301L9.32367 2.7521C9.28353 3.08112 9.11603 3.38279 8.85539 3.59546C8.59475 3.80812 8.26066 3.91574 7.92136 3.89632C7.58206 3.87691 7.26317 3.73192 7.02985 3.49098C6.79653 3.25004 6.66639 2.93134 6.66601 2.6C6.6658 1.94405 6.91992 1.31226 7.37743 0.831288C7.83494 0.350312 8.46203 0.0556963 9.13298 0.00650015L9.33301 0H14.667Z" fill="black"/>
</svg>
