<svg width="30" height="30" viewBox="0 0 30 30" fill="none" xmlns="http://www.w3.org/2000/svg">
<path d="M9.03957 3.65131V7.30107L8.99832 7.33377C8.97388 7.3509 6.942 8.61835 4.4793 10.1521C2.01661 11.6858 0.00153317 12.9454 5.43843e-06 12.9517C-0.00305002 12.9579 1.28177 13.7613 2.85227 14.7376L5.70912 16.5127L5.71218 22.1134L5.71676 27.7142L8.42084 26.087C9.9669 25.1575 11.1356 24.463 11.1509 24.4661C11.1646 24.4708 13.3692 25.7149 16.0518 27.2315C18.733 28.7496 20.9375 29.9953 20.9497 29.9999C20.9681 30.0062 20.9711 29.5282 20.9742 26.3689L20.9788 22.7316L25.4886 19.9802C27.9696 18.4668 30 17.2242 30 17.2196C30 17.2133 28.706 16.3772 27.1248 15.3589C25.5421 14.3421 24.2191 13.4904 24.1839 13.4655L24.1182 13.4203L24.1152 7.81023L24.1106 2.20013L21.2232 3.94248C19.5121 4.97482 18.3251 5.68173 18.3098 5.67705C18.2945 5.67394 16.2077 4.39559 13.6701 2.83541C11.1326 1.27524 9.05332 3.57657e-07 9.04874 3.57657e-07C9.04415 3.57657e-07 9.03957 1.6427 9.03957 3.65131ZM15.0069 4.49057L20.2195 7.69189L20.2287 8.91108C20.2439 10.8418 20.2714 17.6758 20.2638 17.6836C20.2592 17.6867 19.1348 17.0296 17.7644 16.2215L15.2727 14.7532V11.0334C15.2727 8.06559 15.2681 7.31664 15.2544 7.32287C15.2437 7.32754 13.9986 8.10607 12.4877 9.05277C10.9767 9.99946 9.73622 10.7749 9.73316 10.7749C9.7301 10.7749 9.72705 8.62925 9.72705 6.00871V1.24254L9.76219 1.26434C9.78052 1.27679 12.1409 2.72798 15.0069 4.49057ZM23.4308 8.20573C23.4308 10.8263 23.4262 12.9703 23.4201 12.9703C23.4124 12.9703 22.8548 12.6138 22.178 12.1778L20.9482 11.3868L20.939 10.968C20.9329 10.7375 20.9284 9.81729 20.9268 8.92197L20.9253 7.29484L19.9644 6.70316C19.4342 6.37773 19.0049 6.10992 19.0065 6.1068C19.0141 6.10058 23.4216 3.44111 23.4277 3.44111C23.4292 3.44111 23.4308 5.58519 23.4308 8.20573ZM9.03652 9.68805L9.03193 11.2186L7.37435 12.2572L5.71676 13.2958L5.70912 14.4854L5.70149 15.675L3.81474 14.5009C2.77741 13.8563 1.79203 13.2444 1.62551 13.1401L1.32302 12.9517L5.16984 10.5553C7.28574 9.23806 9.02124 8.15901 9.02888 8.15901C9.03499 8.15901 9.03804 8.84724 9.03652 9.68805ZM14.5699 11.6749V14.7547L11.6367 16.589L8.70347 18.4247L8.97693 18.5898C11.0867 19.8635 14.2186 21.7615 14.217 21.7677C14.217 21.7724 12.5564 22.7736 10.5276 23.9943C8.49723 25.2151 6.74034 26.2708 6.62423 26.3408L6.41188 26.4685V20.0814V13.6944L10.4802 11.1455C12.7168 9.7441 14.5516 8.59655 14.5593 8.59655C14.5654 8.59499 14.5699 9.98078 14.5699 11.6749ZM25.0166 14.8466C27.8337 16.6575 28.6663 17.2009 28.6525 17.2149C28.625 17.2398 18.3572 23.5023 18.3327 23.5085C18.2991 23.5179 15.0894 21.5139 15.0894 21.4859C15.0894 21.4672 14.295 20.9799 12.5977 19.9522C11.2288 19.1239 10.0968 18.4372 10.0845 18.4278C10.0662 18.4138 10.5383 18.1133 12.4922 16.8895L14.9244 15.3698L17.9126 17.1308C19.5565 18.0993 20.9192 18.9028 20.939 18.9168L20.9742 18.9401L20.965 17.5777C20.9604 16.8287 20.9513 15.3184 20.9467 14.2191L20.9375 12.2214L21.1499 12.3584C21.266 12.4332 23.0061 13.5527 25.0166 14.8466ZM16.5713 23.2656C17.4742 23.8277 18.238 24.3011 18.2686 24.3198L18.322 24.3525L19.2922 23.7608L20.2607 23.1707L20.2653 24.5782C20.2668 25.3537 20.2668 26.6196 20.2653 27.3934L20.2607 28.7994L16.0625 26.4234C13.7541 25.117 11.8643 24.0411 11.8628 24.0333C11.8628 24.0239 12.5381 23.6098 13.3646 23.113C14.7044 22.3049 14.8709 22.21 14.8984 22.2255C14.9152 22.2364 15.6684 22.7051 16.5713 23.2656Z" fill="white"/>
</svg>
