<?xml version="1.0" standalone="no"?>
<!DOCTYPE svg PUBLIC "-//W3C//DTD SVG 20010904//EN"
 "http://www.w3.org/TR/2001/REC-SVG-20010904/DTD/svg10.dtd">
<svg version="1.0" xmlns="http://www.w3.org/2000/svg"
 width="1966.000000pt" height="1930.000000pt" viewBox="0 0 1966.000000 1930.000000"
 preserveAspectRatio="xMidYMid meet">

<g transform="translate(0.000000,1930.000000) scale(0.100000,-0.100000)"
fill="#000000" stroke="none">
<path d="M5930 16935 l0 -2344 -27 -21 c-16 -11 -1346 -825 -2958 -1810 -1612
-985 -2931 -1794 -2932 -1798 -2 -4 839 -520 1867 -1147 l1870 -1140 2 -3597
3 -3597 1770 1045 c1012 597 1777 1043 1787 1041 9 -3 1452 -802 3208 -1776
1755 -975 3198 -1775 3206 -1778 12 -4 14 303 16 2332 l3 2336 2952 1767
c1624 972 2953 1770 2953 1773 0 4 -847 541 -1882 1195 -1036 653 -1902 1200
-1925 1216 l-43 29 -2 3603 -3 3603 -1890 -1119 c-1120 -663 -1897 -1117
-1907 -1114 -10 2 -1376 823 -3037 1825 -1661 1002 -3022 1821 -3025 1821 -3
0 -6 -1055 -6 -2345z m3906 -539 l3412 -2056 6 -783 c10 -1240 28 -5629 23
-5634 -3 -2 -739 420 -1636 939 l-1631 943 0 2389 c0 1906 -3 2387 -12 2383
-7 -3 -822 -503 -1811 -1111 -989 -608 -1801 -1106 -1803 -1106 -2 0 -4 1378
-4 3061 l0 3061 23 -14 c12 -8 1557 -940 3433 -2072z m5514 -2386 c0 -1683 -3
-3060 -7 -3060 -5 0 -370 229 -813 509 l-805 508 -6 269 c-4 148 -7 739 -8
1314 l-1 1045 -629 380 c-347 209 -628 381 -627 383 5 4 2890 1712 2894 1712
1 0 2 -1377 2 -3060z m-9422 -952 l-3 -983 -1085 -667 -1085 -667 -5 -764 -5
-764 -1235 754 c-679 414 -1324 807 -1433 874 l-198 121 2518 1539 c1385 846
2521 1539 2526 1539 4 0 6 -442 5 -982z m3622 -1276 l0 -1978 -1920 -1178
-1920 -1179 179 -106 c1381 -818 3431 -2037 3430 -2041 0 -3 -1087 -646 -2415
-1430 -1329 -784 -2479 -1462 -2555 -1507 l-139 -82 0 4102 0 4102 2663 1637
c1464 900 2665 1637 2670 1637 4 1 7 -889 7 -1977z m6838 -2037 c1844 -1163
2389 -1512 2380 -1521 -18 -16 -6739 -4038 -6755 -4042 -22 -6 -2123 1281
-2123 1299 0 12 -520 325 -1631 985 -896 532 -1637 973 -1645 979 -12 9 297
202 1576 988 l1592 976 1956 -1131 c1076 -622 1968 -1138 1981 -1147 l23 -15
-6 875 c-3 481 -9 1451 -12 2157 l-6 1283 139 -88 c76 -48 1215 -767 2531
-1598z m-5528 -5407 c591 -361 1091 -665 1111 -677 l35 -21 635 380 634 379 3
-904 c1 -498 1 -1311 0 -1808 l-3 -903 -2748 1526 c-1511 839 -2748 1530
-2749 1535 0 6 442 272 983 591 877 519 986 580 1004 570 11 -7 504 -308 1095
-668z"/>
</g>
</svg>
